{"title":"loveshhuda  (2016) DVDScr x264  AAC TaRa","uid":13828546,"size":1152220224,"categoryP":"video","categoryS":"movies_dvdr","magnet":"?xt=urn:btih:6c44312aa0de36481b96447d3a730f5cdcce2981&amp;dn=loveshhuda++%282016%29+DVDScr+x264++AAC+TaRa&amp;tr=udp%3A%2F%2Ftracker.leechers-paradise.org%3A6969&amp;tr=udp%3A%2F%2Fzer0day.ch%3A1337&amp;tr=udp%3A%2F%2Fopen.demonii.com%3A1337&amp;tr=udp%3A%2F%2Ftracker.coppersurfer.tk%3A6969&amp;tr=udp%3A%2F%2Fexodus.desync.com%3A6969","seeders":2,"leechers":1,"uploader":null,"files":1,"time":1457725207,"description":"[img]http://i.imgur.com/X2WIlqQ.png[/img]\r\n[img]http://i.imgur.com/ugozAXB.png[/img]\r\n[img]http://i.imgur.com/Uij5LSh.png[/img]\r\n[img]http://i.imgur.com/1ufylgI.png[/img]\r\n[img]http://i.imgur.com/3MGiiNS.png[/img]\r\n[img]http://i.imgur.com/oaiOb9R.png[/img]\r\n[img]http://i.imgur.com/mKGmz79.png[/img]\r\n[img]http://i.imgur.com/OzXS5nr.png[/img]\r\n===================================================================================\r\n\r\nComplete name               : loveshhuda  (2016) DVDScr x264  AAC TaRa.mkv\r\nFormat                      : Matroska\r\nFormat version              : Version 4 / Version 2\r\nFile size                   : 1.07 GiB\r\nDuration                    : 2h 11mn\r\nOverall bit rate mode       : Variable\r\nOverall bit rate            : 1 170 Kbps\r\n===================================================================================\r\nVideo\r\nID                          : 1\r\nFormat                      : AVC\r\nFormat/Info                 : Advanced Video Codec\r\nFormat profile              :   \r\nFormat settings, CABAC      : Yes\r\nFormat settings, ReFrames   : 3 frames\r\nCodec ID                    : V_MPEG4/ISO/AVC\r\nDuration                    : 2h 11mn\r\nBit rate mode               : Variable\r\nBit rate                    : 995 Kbps\r\nMaximum bit rate            : 40.0 Mbps\r\nWidth                       : 960 pixels\r\nHeight                      : 408 pixels\r\nDisplay aspect ratio        : 2.35:1\r\nFrame rate mode             : Constant\r\nFrame rate                  : 25.000 fps\r\nColor space                 : YUV\r\nChroma subsampling          : 4:2:0\r\nBit depth                   : 8 bits\r\nScan type                   : Progressive\r\nBits/(Pixel*Frame)          : 0.102\r\nStream size                 : 934 MiB (85%)\r\nTitle                       : = __ TaRa ~ DDR __ =\r\nLanguage                    : Hindi\r\nDefault                     : Yes\r\nForced                      : No\r\n===================================================================================\r\nAudio\r\nID                          : 2\r\nFormat                      : AAC\r\nFormat/Info                 : Advanced Audio Codec\r\nFormat profile              : HE-AAC / LC\r\nCodec ID                    : A_AAC\r\nDuration                    : 2h 11mn\r\nBit rate                    : 173 Kbps\r\nChannel(s)                  : 2 channels\r\nChannel positions           : Front: L R\r\nSampling rate               : 44.1 KHz / 22.05 KHz\r\nFrame rate                  : 21.533 fps (1024 spf)\r\nCompression mode            : Lossy\r\nDelay relative to video     : 33ms\r\nStream size                 : 163 MiB (15%)\r\nTitle                       : = __ TaRa ~ DDR __ =\r\nLanguage                    : Hindi\r\nDefault                     : Yes\r\nForced                      : No\r\n===================================================================================","torrent":{"xt":"urn:btih:6c44312aa0de36481b96447d3a730f5cdcce2981","amp;dn":"loveshhuda++%282016%29+DVDScr+x264++AAC+TaRa","amp;tr":["udp%3A%2F%2Ftracker.leechers-paradise.org%3A6969","udp%3A%2F%2Fzer0day.ch%3A1337","udp%3A%2F%2Fopen.demonii.com%3A1337","udp%3A%2F%2Ftracker.coppersurfer.tk%3A6969","udp%3A%2F%2Fexodus.desync.com%3A6969"],"infoHash":"6c44312aa0de36481b96447d3a730f5cdcce2981","infoHashBuffer":{"type":"Buffer","data":[108,68,49,42,160,222,54,72,27,150,68,125,58,115,15,92,220,206,41,129]},"announce":[],"urlList":[]}}